<svg width="600" height="500" viewBox="0 0 600 500" fill="none" xmlns="http://www.w3.org/2000/svg">
<path d="M0 201C0 89.9908 89.9908 0 201 0H540C573.137 0 600 26.8629 600 60V304C600 412.248 512.248 500 404 500H60C26.8629 500 0 473.137 0 440V201Z" fill="black"/>
<path d="M308.881 398.766L308.709 398.795L307.691 399.297L307.405 399.354L307.204 399.297L306.186 398.781C306.033 398.742 305.918 398.771 305.842 398.867L305.785 399.01L305.541 405.146L305.613 405.433L305.756 405.619L307.247 406.68L307.462 406.737L307.634 406.68L309.125 405.619L309.297 405.39L309.354 405.146L309.111 399.024C309.072 398.871 308.996 398.785 308.881 398.766ZM312.666 397.146L312.465 397.175L309.828 398.508L309.684 398.651L309.641 398.809L309.899 404.974L309.971 405.146L310.086 405.261L312.967 406.58C313.149 406.627 313.287 406.589 313.383 406.465L313.44 406.264L312.953 397.462C312.905 397.28 312.81 397.175 312.666 397.146ZM302.416 397.175C302.352 397.137 302.277 397.124 302.205 397.14C302.133 397.156 302.069 397.199 302.028 397.261L301.942 397.462L301.455 406.264C301.465 406.436 301.546 406.551 301.699 406.608L301.914 406.58L304.795 405.246L304.939 405.132L304.982 404.974L305.24 398.809L305.197 398.637L305.053 398.494L302.416 397.175Z" fill="white"/>
<path d="M286.029 94C267.017 94 248.785 101.552 235.342 114.995C221.898 128.438 214.346 146.671 214.346 165.683C214.346 184.694 221.898 202.927 235.342 216.37C248.785 229.813 267.017 237.365 286.029 237.365C305.04 237.365 323.273 229.813 336.716 216.37C350.159 202.927 357.712 184.694 357.712 165.683C357.712 146.671 350.159 128.438 336.716 114.995C323.273 101.552 305.04 94 286.029 94ZM286.029 251.702C251.693 251.702 220.439 261.652 197.458 275.673C185.988 282.669 176.182 290.927 169.1 299.901C162.132 308.704 157 319.27 157 330.553C157 342.667 162.892 352.215 171.38 359.025C179.408 365.477 190.003 369.749 201.257 372.731C223.88 378.709 254.073 380.731 286.029 380.731L295.849 380.659C298.25 380.626 300.605 379.991 302.696 378.811C304.788 377.631 306.549 375.945 307.819 373.907C309.09 371.869 309.827 369.545 309.965 367.148C310.103 364.75 309.637 362.357 308.609 360.187C303.173 348.68 300.357 336.111 300.365 323.385C300.365 305.435 305.856 288.805 315.232 275.028C316.626 272.98 317.466 270.607 317.669 268.138C317.873 265.67 317.433 263.191 316.394 260.943C315.354 258.695 313.75 256.755 311.737 255.311C309.725 253.867 307.373 252.97 304.91 252.706C298.736 252.036 292.442 251.702 286.029 251.702ZM390.915 266.77C387.974 265.79 384.795 265.79 381.854 266.77L338.845 281.106C335.989 282.057 333.505 283.883 331.745 286.325C329.985 288.767 329.038 291.701 329.039 294.712V318.668C329.036 334.003 334.689 348.799 344.916 360.227C355.142 371.654 369.223 378.908 384.464 380.602C385.754 380.745 387.035 380.745 388.306 380.602C403.547 378.908 417.628 371.654 427.854 360.227C438.08 348.799 443.733 334.003 443.731 318.668V294.712C443.732 291.701 442.785 288.767 441.025 286.325C439.265 283.883 436.781 282.057 433.925 281.106L390.915 266.77Z" fill="white"/>
</svg>
